<svg width="33" height="40" viewBox="0 0 33 40" fill="none" xmlns="http://www.w3.org/2000/svg">
<g clip-path="url(#clip0_1_360)">
<path d="M18.972 9V14.4812C18.3387 14.3703 17.6843 14.3243 16.9965 14.3243C16.2752 14.3243 15.5874 14.3771 14.9259 14.4949V9H18.972Z" fill="#00F0C9"/>
<path d="M26 22.7601C26 24.3296 25.6024 25.7626 24.8126 27.0506C24.0297 28.3318 22.9513 29.3519 21.595 30.1111C20.2334 30.8634 18.7011 31.2353 16.9947 31.2353C15.2883 31.2353 13.7912 30.8617 12.4296 30.1111C11.0733 29.3519 9.99492 28.3318 9.19273 27.0506C8.39758 25.7626 7.99825 24.3296 7.99825 22.7601C7.99825 21.1907 8.39582 19.7321 9.19273 18.4441C9.99492 17.1629 11.0751 16.1428 12.4296 15.4024C13.2125 14.9776 14.0411 14.6705 14.9242 14.4931V17.9136C13.1368 18.6659 11.8896 20.3991 11.8896 22.407C11.8896 25.1143 14.1554 27.3116 16.9472 27.3116C19.7391 27.3116 22.0049 25.1143 22.0049 22.407C22.0049 20.3991 20.7576 18.6659 18.9703 17.9136V14.4744C19.8868 14.6518 20.7506 14.9589 21.5598 15.4024C22.9214 16.1411 24.0016 17.1612 24.7967 18.4441C25.5919 19.7321 25.9965 21.1719 25.9965 22.7601H26Z" fill="#00F0C9"/>
</g>
<defs>
<clipPath id="clip0_1_360">
<rect width="18" height="22.2353" fill="white" transform="translate(8 9)"/>
</clipPath>
</defs>
</svg>
