<svg width="15" height="22" viewBox="0 0 15 22" fill="none" xmlns="http://www.w3.org/2000/svg">
<g id="Dash">
<g id="Vector">
<path d="M7.89993 18.7345C5.47571 18.7345 3.68974 16.8962 3.68974 14.6106C3.68974 12.3251 5.47845 10.448 7.89993 10.448C9.69686 10.448 11.2473 11.4693 11.9211 12.9327H14.9808C14.9808 12.9327 14.9753 12.9171 14.9753 12.9068L15 0L10.7789 0.760136V7.90645C9.80095 7.47726 8.73813 7.25749 7.58492 7.25749C6.17969 7.25749 4.89774 7.58327 3.74452 8.23481C2.59679 8.89153 1.68462 9.77577 1.0053 10.8875C0.331446 12.0045 0 13.2507 0 14.6262C0 16.0016 0.334186 17.2789 1.0053 18.3932C1.68462 19.5024 2.59679 20.3867 3.74452 21.0279C4.89774 21.6742 6.17969 22 7.58492 22C8.99014 22 10.294 21.6691 11.4472 21.0175C12.595 20.366 13.5071 19.4817 14.17 18.3648C14.5672 17.7029 14.8439 16.9945 15 16.2447H11.9211C11.2473 17.7081 9.69686 18.7293 7.89993 18.7293V18.7345Z" fill="#00F0C9"/>
</g>
</g>
</svg>
