<svg width="22" height="22" viewBox="0 0 22 22" fill="none" xmlns="http://www.w3.org/2000/svg">
<g id="Essencial">
<path id="Vector" d="M4.76486 14.2176H0.976796C0.435644 14.2176 0 13.8217 0 13.3369V0.880736C0 0.395871 0.439047 0 0.976796 0H4.76145C5.3026 0 5.73825 0.395871 5.73825 0.880736V13.3338C5.73825 13.8217 5.2992 14.2145 4.76145 14.2145L4.76486 14.2176Z" fill="#19C819"/>
<path id="Vector_2" d="M16.2584 14.951V3.22528C16.2584 2.92761 16.5954 2.68518 17.0106 2.68518H21.2445C21.6597 2.68518 21.9967 2.92761 21.9967 3.22528V21.4568C21.9967 21.7545 21.6597 21.9969 21.2445 21.9969H16.9766C16.5579 21.9969 16.221 21.7545 16.2244 21.4568L16.2584 14.951Z" fill="#19C819"/>
<path id="Vector_3" d="M2.86914 13.1957V21.4169" stroke="#19C819" stroke-width="2" stroke-miterlimit="10"/>
<path id="Vector_4" d="M19.1138 0V3.32348" stroke="#19C819" stroke-width="2" stroke-miterlimit="10"/>
<path id="Vector_5" d="M8.62093 11.5723L12.5451 17.0654C12.7221 17.314 13.1475 17.1974 13.1441 16.9028L13.0284 10.3694L9.09741 4.86706C8.92383 4.62156 8.4984 4.73817 8.50521 5.0297L8.62093 11.5754V11.5723Z" fill="#19C819"/>
</g>
</svg>
