<svg width="23" height="23" viewBox="0 0 23 23" fill="none" xmlns="http://www.w3.org/2000/svg">
<path d="M22 11.3813C22 13.3476 21.5363 15.1414 20.615 16.7563C19.7028 18.3617 18.444 19.641 16.8614 20.5909C15.2726 21.5329 13.4863 22 11.4962 22C9.50612 22 7.75928 21.5329 6.16904 20.5909C4.58792 19.641 3.32911 18.3617 2.3926 16.7563C1.46369 15.1414 1 13.3476 1 11.3813C1 9.38955 1.46369 7.58783 2.3926 5.97293C3.32911 4.36754 4.58792 3.08828 6.16904 2.16368C7.08123 1.63171 8.04966 1.2454 9.08043 1.02533V5.31114C6.99609 6.25317 5.53964 8.42536 5.53964 10.9395C5.53964 14.3324 8.18345 17.0841 11.4399 17.0841C14.698 17.0841 17.3403 14.3308 17.3403 10.9395C17.3403 8.42378 15.8853 6.25317 13.7995 5.31114V1C14.8698 1.22165 15.8762 1.60638 16.8203 2.16368C18.409 3.08987 19.6678 4.36754 20.5968 5.97293C21.5257 7.58625 21.997 9.38955 21.997 11.3813H22Z" fill="url(#paint0_linear_1_348)" stroke="#00F0C9" stroke-width="0.5" stroke-miterlimit="10"/>
<path d="M9.08051 5.28581C9.08051 5.28581 11.4415 4.52903 13.8011 5.28581V10.6086H9.08051V5.28581Z" fill="url(#paint1_linear_1_348)" stroke="#00F0C9" stroke-width="0.5" stroke-miterlimit="10"/>
<defs>
<linearGradient id="paint0_linear_1_348" x1="1" y1="12.9583" x2="22" y2="12.9583" gradientUnits="userSpaceOnUse">
<stop stop-color="#222729"/>
<stop offset="1" stop-color="#1CB799"/>
</linearGradient>
<linearGradient id="paint1_linear_1_348" x1="13.8333" y1="6.54167" x2="7.70833" y2="6.54167" gradientUnits="userSpaceOnUse">
<stop stop-color="#12D8B2"/>
<stop offset="1" stop-color="#131516"/>
</linearGradient>
</defs>
</svg>
