<svg width="51" height="46" viewBox="0 0 51 46" fill="none" xmlns="http://www.w3.org/2000/svg">
<rect x="0.5" y="0.5" width="50" height="45" rx="7.5" fill="#131313"/>
<rect x="0.5" y="0.5" width="50" height="45" rx="7.5" stroke="#4D5358"/>
<path d="M36 23.3813C36 25.3476 35.5363 27.1414 34.615 28.7563C33.7028 30.3617 32.444 31.641 30.8614 32.5909C29.2726 33.5329 27.4863 34 25.4962 34C23.5061 34 21.7593 33.5329 20.169 32.5909C18.5879 31.641 17.3291 30.3617 16.3926 28.7563C15.4637 27.1414 15 25.3476 15 23.3813C15 21.3896 15.4637 19.5878 16.3926 17.9729C17.3291 16.3675 18.5879 15.0883 20.169 14.1637C21.0812 13.6317 22.0497 13.2454 23.0804 13.0253V17.3111C20.9961 18.2532 19.5396 20.4254 19.5396 22.9395C19.5396 26.3324 22.1834 29.0841 25.4399 29.0841C28.698 29.0841 31.3403 26.3308 31.3403 22.9395C31.3403 20.4238 29.8853 18.2532 27.7995 17.3111V13C28.8698 13.2217 29.8762 13.6064 30.8203 14.1637C32.409 15.0899 33.6678 16.3675 34.5968 17.9729C35.5257 19.5862 35.997 21.3896 35.997 23.3813H36Z" fill="url(#paint0_linear_1_347)" stroke="#00F0C9" stroke-width="0.5" stroke-miterlimit="10"/>
<path d="M23.0805 17.2858C23.0805 17.2858 25.4415 16.529 27.8011 17.2858V22.6086H23.0805V17.2858Z" fill="url(#paint1_linear_1_347)" stroke="#00F0C9" stroke-width="0.5" stroke-miterlimit="10"/>
<defs>
<linearGradient id="paint0_linear_1_347" x1="15" y1="24.9583" x2="36" y2="24.9583" gradientUnits="userSpaceOnUse">
<stop stop-color="#222729"/>
<stop offset="1" stop-color="#1CB799"/>
</linearGradient>
<linearGradient id="paint1_linear_1_347" x1="27.8333" y1="18.5417" x2="21.7083" y2="18.5417" gradientUnits="userSpaceOnUse">
<stop stop-color="#12D8B2"/>
<stop offset="1" stop-color="#131516"/>
</linearGradient>
</defs>
</svg>
