<svg width="22" height="22" viewBox="0 0 22 22" fill="none" xmlns="http://www.w3.org/2000/svg">
<g id="Minicurso">
<path id="Subtract" fill-rule="evenodd" clip-rule="evenodd" d="M11 22C17.0751 22 22 17.0751 22 11C22 4.92487 17.0751 0 11 0C4.92487 0 0 4.92487 0 11C0 17.0751 4.92487 22 11 22ZM11 18.7234C15.2655 18.7234 18.7234 15.2655 18.7234 11C18.7234 6.7345 15.2655 3.27661 11 3.27661C6.7345 3.27661 3.27661 6.7345 3.27661 11C3.27661 15.2655 6.7345 18.7234 11 18.7234Z" fill="#19C819"/>
<g id="100K">
<path d="M6.67212 12.5956V10.4133L6.08521 10.635V10.1683L6.88632 9.87262H7.25903V12.5956H6.67212Z" fill="#19C819"/>
<path d="M8.95395 12.6383C8.69405 12.6383 8.46414 12.58 8.26421 12.4633C8.06715 12.344 7.91292 12.1793 7.80154 11.9693C7.69301 11.7566 7.63874 11.5116 7.63874 11.2341C7.63874 10.954 7.69301 10.709 7.80154 10.4989C7.91292 10.2888 8.06715 10.1255 8.26421 10.0088C8.46414 9.88948 8.69405 9.82983 8.95395 9.82983C9.2167 9.82983 9.44661 9.88948 9.64368 10.0088C9.8436 10.1255 9.99783 10.2888 10.1064 10.4989C10.2177 10.709 10.2734 10.954 10.2734 11.2341C10.2734 11.5116 10.2177 11.7566 10.1064 11.9693C9.99783 12.1793 9.8436 12.344 9.64368 12.4633C9.44661 12.58 9.2167 12.6383 8.95395 12.6383ZM8.95395 12.1754C9.10817 12.1754 9.24098 12.1378 9.35236 12.0626C9.46375 11.9874 9.54943 11.8785 9.6094 11.7359C9.67224 11.5933 9.70365 11.426 9.70365 11.2341C9.70365 11.0396 9.67224 10.8723 9.6094 10.7323C9.54943 10.5897 9.46375 10.4807 9.35236 10.4055C9.24098 10.3303 9.10817 10.2927 8.95395 10.2927C8.80258 10.2927 8.6712 10.3303 8.55981 10.4055C8.44843 10.4807 8.36132 10.5897 8.29849 10.7323C8.23851 10.8723 8.20852 11.0396 8.20852 11.2341C8.20852 11.426 8.23851 11.5933 8.29849 11.7359C8.36132 11.8785 8.44843 11.9874 8.55981 12.0626C8.6712 12.1378 8.80258 12.1754 8.95395 12.1754Z" fill="#19C819"/>
<path d="M11.8867 12.6383C11.6268 12.6383 11.3969 12.58 11.1969 12.4633C10.9999 12.344 10.8457 12.1793 10.7343 11.9693C10.6257 11.7566 10.5715 11.5116 10.5715 11.2341C10.5715 10.954 10.6257 10.709 10.7343 10.4989C10.8457 10.2888 10.9999 10.1255 11.1969 10.0088C11.3969 9.88948 11.6268 9.82983 11.8867 9.82983C12.1494 9.82983 12.3793 9.88948 12.5764 10.0088C12.7763 10.1255 12.9306 10.2888 13.0391 10.4989C13.1505 10.709 13.2062 10.954 13.2062 11.2341C13.2062 11.5116 13.1505 11.7566 13.0391 11.9693C12.9306 12.1793 12.7763 12.344 12.5764 12.4633C12.3793 12.58 12.1494 12.6383 11.8867 12.6383ZM11.8867 12.1754C12.0409 12.1754 12.1737 12.1378 12.2851 12.0626C12.3965 11.9874 12.4822 11.8785 12.5421 11.7359C12.605 11.5933 12.6364 11.426 12.6364 11.2341C12.6364 11.0396 12.605 10.8723 12.5421 10.7323C12.4822 10.5897 12.3965 10.4807 12.2851 10.4055C12.1737 10.3303 12.0409 10.2927 11.8867 10.2927C11.7353 10.2927 11.6039 10.3303 11.4925 10.4055C11.3812 10.4807 11.2941 10.5897 11.2312 10.7323C11.1712 10.8723 11.1413 11.0396 11.1413 11.2341C11.1413 11.426 11.1712 11.5933 11.2312 11.7359C11.2941 11.8785 11.3812 11.9874 11.4925 12.0626C11.6039 12.1378 11.7353 12.1754 11.8867 12.1754Z" fill="#19C819"/>
<path d="M13.6242 12.5956V9.87262H14.2453V11.0902L15.5563 9.87262H16.3145L14.858 11.168L16.3831 12.5956H15.552L14.2453 11.3313V12.5956H13.6242Z" fill="#19C819"/>
</g>
</g>
</svg>
