<svg width="22" height="22" viewBox="0 0 22 22" fill="none" xmlns="http://www.w3.org/2000/svg">
<g id="small caps" clip-path="url(#clip0_1_1975)">
<path id="Vector" d="M15.5909 21.4993C14.2452 21.834 12.717 21.9999 11.0064 21.9999C9.29584 21.9999 7.8459 21.834 6.44809 21.4993C5.04702 21.1645 3.81538 20.7275 2.74666 20.1825C1.67794 19.6403 0.762357 18.9958 0.00317383 18.2489L3.34619 15.123C3.84471 15.585 4.44097 16.0221 5.13173 16.4315C5.82575 16.8437 6.66313 17.2033 7.64714 17.5159C8.63114 17.8284 9.74222 17.9834 10.9836 17.9834C12.1534 17.9834 13.196 17.8367 14.1149 17.5408L15.5941 21.4993H15.5909Z" fill="#19C819"/>
<path id="Vector_2" d="M20.9965 12.7248C20.3253 12.0332 19.4586 11.5076 18.3932 11.1508C17.3277 10.7939 16.1808 10.5339 14.9491 10.3734C13.7175 10.213 12.5022 10.0885 11.3064 10.0055C10.2181 9.92808 9.23083 9.83126 8.34457 9.71784C7.45506 9.60166 6.77082 9.43568 6.28533 9.21715C5.79984 8.99862 5.55873 8.6888 5.55873 8.28769C5.55873 7.84786 6.11916 7.40526 7.24327 6.95436C8.36738 6.50346 9.64789 6.27939 11.0881 6.27939C12.2219 6.27939 13.1799 6.37898 13.9684 6.57815C14.7569 6.77732 15.4444 7.04011 16.0276 7.36376C16.6109 7.68741 17.2202 8.08575 17.8555 8.56431L21.2539 5.67911C20.4752 4.97925 19.6118 4.38174 18.6669 3.89212C17.7187 3.39972 16.6141 3.00138 15.3434 2.6971C14.8286 2.57261 14.2779 2.48133 13.7077 2.40941V0H7.65056V2.52006C6.88811 2.65837 6.17781 2.84371 5.51963 3.08437C3.97846 3.64869 2.78918 4.39281 1.95179 5.31674C1.11441 6.24066 0.694092 7.22822 0.694092 8.28216C0.694092 9.3361 0.928689 10.213 1.40114 10.9129C1.8736 11.6127 2.49593 12.1715 3.27792 12.5864C4.05665 13.0014 4.92988 13.314 5.89433 13.5214C6.85879 13.7289 7.85257 13.8783 8.86916 13.964L14.5419 14.3568C15.3401 14.4371 15.9494 14.5671 16.3763 14.7441C16.8031 14.9212 17.0149 15.1757 17.0149 15.5048C17.0149 15.7898 16.7608 16.1272 16.2525 16.5145L20.6903 18.7054C21.5635 17.7178 22.0001 16.6501 22.0001 15.5048C22.0001 14.3596 21.6645 13.4163 20.9933 12.7248H20.9965Z" fill="#FAFAFA"/>
</g>
<defs>
<clipPath id="clip0_1_1975">
<rect width="22" height="22" fill="white"/>
</clipPath>
</defs>
</svg>
