<svg width="81" height="16" viewBox="0 0 81 16" fill="none" xmlns="http://www.w3.org/2000/svg">
<path d="M10.1321 14.8107L16.9263 1.18938H13.4916L8.61115 11.1644L3.9981 1.18938H0.195679L6.98154 14.8107H10.1321Z" fill="#FAFAFA"/>
<path d="M18.2631 14.8107L23.1269 4.77703L27.9906 14.8107H31.4922L24.698 1.18938H21.5474L14.7616 14.8107H18.2631Z" fill="#FAFAFA"/>
<path d="M33.5059 4.10644H41.7459C42.1387 4.10644 42.4897 4.24894 42.7989 4.54232C43.0997 4.8357 43.2502 5.24644 43.2502 5.79129C43.2502 6.32776 43.1081 6.7385 42.8323 7.03188C42.5482 7.32526 42.1888 7.46776 41.7459 7.46776H33.5059V14.8107H36.7819V10.3848H40.8016L43.434 14.8107H47.1863L44.136 9.83997C44.8213 9.52144 45.3895 9.00174 45.8492 8.28085C46.3004 7.55997 46.5261 6.73012 46.5261 5.79129C46.5261 4.90276 46.3339 4.11482 45.9411 3.41909C45.5483 2.72335 44.9968 2.1785 44.2864 1.78453C43.5677 1.39056 42.7237 1.18938 41.7459 1.18938H33.5059V4.10644Z" fill="#FAFAFA"/>
<path d="M56.7965 15.1795C58.3175 15.1795 59.6964 14.8694 60.9499 14.2491C62.1951 13.6288 63.1979 12.7738 63.9417 11.6925C64.6855 10.6028 65.0615 9.37894 65.0615 8.00423C65.0615 6.62115 64.6855 5.39732 63.9417 4.316C63.1979 3.22629 62.1951 2.37967 60.9499 1.75938C59.6964 1.1307 58.3175 0.820557 56.7965 0.820557C55.2839 0.820557 53.905 1.1307 52.6514 1.75938C51.4062 2.37967 50.4034 3.22629 49.6596 4.316C48.9159 5.39732 48.5398 6.62115 48.5398 8.00423C48.5398 9.37894 48.9159 10.6028 49.6596 11.6925C50.4034 12.7738 51.4062 13.6288 52.6514 14.2491C53.905 14.8694 55.2839 15.1795 56.7965 15.1795ZM56.7965 12.0361C55.919 12.0361 55.1 11.8769 54.3395 11.5584C53.579 11.2314 52.969 10.7704 52.5094 10.1669C52.0497 9.56335 51.8157 8.84247 51.8157 8.00423C51.8157 7.15762 52.0497 6.43673 52.5094 5.83321C52.969 5.22968 53.579 4.76865 54.3395 4.45012C55.1 4.1232 55.919 3.96394 56.7965 3.96394C57.6823 3.96394 58.5013 4.1232 59.2618 4.44173C60.0139 4.76026 60.624 5.22129 61.092 5.82482C61.5516 6.41997 61.7856 7.14923 61.7856 8.00423C61.7856 8.85085 61.5516 9.58012 61.092 10.1836C60.624 10.7788 60.0139 11.2398 59.2618 11.5584C58.5013 11.8769 57.6823 12.0361 56.7965 12.0361Z" fill="#FAFAFA"/>
<path d="M73.4349 15.1795C74.8472 15.1795 76.059 14.9616 77.0702 14.5257C78.0814 14.0814 78.8502 13.5031 79.3934 12.7822C79.9283 12.0613 80.1957 11.2901 80.1957 10.4603C80.1957 9.61365 79.9951 8.94306 79.5773 8.44012C79.1594 7.93718 78.6246 7.55159 77.9727 7.29173C77.3209 7.03188 76.6189 6.84747 75.8584 6.73012C75.1063 6.61276 74.3541 6.52894 73.6187 6.46188C72.9502 6.4032 72.3401 6.33615 71.7969 6.25232C71.2537 6.1685 70.8275 6.04276 70.5267 5.8835C70.2342 5.72423 70.0837 5.49791 70.0837 5.21291C70.0837 4.89438 70.4264 4.56747 71.12 4.24056C71.8053 3.91365 72.5992 3.75438 73.485 3.75438C74.187 3.75438 74.772 3.82144 75.2567 3.97232C75.7414 4.11482 76.1593 4.30762 76.5186 4.54232C76.8863 4.77703 77.2624 5.06203 77.6468 5.41409L79.736 3.3185C79.2513 2.80717 78.7249 2.37129 78.1399 2.01923C77.5632 1.65879 76.878 1.37379 76.1008 1.14747C75.3236 0.929527 74.4294 0.820557 73.4349 0.820557C72.1312 0.820557 71.0114 1.03012 70.0587 1.44085C69.1143 1.85159 68.3873 2.38806 67.8691 3.05865C67.351 3.72923 67.0919 4.45012 67.0919 5.21291C67.0919 5.98409 67.234 6.62115 67.5265 7.12409C67.8106 7.63541 68.1951 8.03776 68.6798 8.33953C69.1645 8.64129 69.6993 8.86762 70.2843 9.0185C70.8776 9.16938 71.4877 9.27835 72.1145 9.34541C72.7413 9.41247 73.3513 9.45438 73.9447 9.48791C74.5631 9.52144 75.1146 9.57174 75.6077 9.63041C76.1008 9.68909 76.4768 9.78129 76.7359 9.90703C76.995 10.0328 77.1287 10.2172 77.1287 10.4603C77.1287 10.6698 76.9699 10.9129 76.6607 11.1979C76.3515 11.4829 75.9085 11.726 75.3486 11.9356C74.7804 12.1535 74.1369 12.2625 73.4182 12.2625C72.6577 12.2625 71.9724 12.1451 71.3707 11.9188C70.7607 11.6925 70.2425 11.4326 69.8163 11.1309C69.3901 10.8291 69.0224 10.5189 68.7215 10.1836L66.6657 12.4553C67.1337 13.0001 67.6936 13.4695 68.3538 13.8635C69.0057 14.2575 69.7662 14.5676 70.6269 14.8107C71.4877 15.0538 72.4237 15.1795 73.4349 15.1795Z" fill="#FAFAFA"/>
</svg>
